<?xml version="1.0" encoding="iso-8859-1"?>
<!-- Generator: Adobe Illustrator 18.1.1, SVG Export Plug-In . SVG Version: 6.00 Build 0)  -->
<svg version="1.1" id="Capa_1" xmlns="http://www.w3.org/2000/svg" xmlns:xlink="http://www.w3.org/1999/xlink" x="0px" y="0px"
	 viewBox="0 0 197.238 197.238" style="enable-background:new 0 0 197.238 197.238;" xml:space="preserve">
<g>
	<g>
		<path style="fill:#010002;" d="M59.638,108.679l-1.539,4.259c-1.485,4.141-3.804,7.805-6.882,10.876
			c-3.307,3.318-7.261,5.733-11.767,7.193l-4.445,1.449l33.996,34.003h-2.82v30.778h72.533V166.46h-21.28L59.638,108.679z
			 M45.445,134.794c3.661-1.725,6.964-4.041,9.824-6.918c2.641-2.638,4.824-5.651,6.492-8.969l47.667,47.667H77.225L45.445,134.794z
			 M132.983,191.494H71.918V172.2h61.066C132.983,172.2,132.983,191.494,132.983,191.494z"/>
		<circle style="fill:#010002;" cx="30.102" cy="100.072" r="11.016"/>
		<path style="fill:#010002;" d="M57.888,100.068c0-0.956-0.047-1.9-0.14-2.831c-1.449-14.233-13.328-24.955-27.647-24.955
			c-15.325,0-27.786,12.458-27.786,27.786c0,15.317,12.458,27.786,27.786,27.786S57.888,115.389,57.888,100.068z M30.102,120.911
			c-11.492,0-20.84-9.344-20.84-20.843s9.348-20.843,20.84-20.843c11.499,0,20.847,9.344,20.847,20.843
			S41.601,120.911,30.102,120.911z"/>
		<path style="fill:#010002;" d="M193.248,19.276c-0.977-0.551-2.222-0.551-3.217,0.007c-0.523,0.297-0.956,0.737-1.238,1.253
			L168.518,56.8l-22.651-4.52L131.38,26.015l7.609-19.326L180.4,9.273l0.301,0.011c0.508,0,1.02-0.122,1.496-0.372
			c1.013-0.54,1.664-1.55,1.725-2.688c0.061-0.88-0.229-1.714-0.805-2.376c-0.583-0.659-1.385-1.041-2.258-1.106L136.856,0
			c-1.417,0-2.566,0.777-3.071,2.065l-6.506,16.499l0,0l-14.985,7.92l3.221,6.116l-71.273,37.7l3.607,2.709
			c3.539,2.659,6.363,5.944,8.392,9.788c2.19,4.144,3.339,8.643,3.4,13.367l0.068,4.674l71.82-37.979l3.221,6.106l13.052-6.911
			l3.339-1.331l-0.669-0.859l19.093,3.808c0.222,0.047,0.444,0.072,0.658,0.072c1.185,0,2.28-0.644,2.845-1.668l21.441-38.351
			C195.384,22.153,194.819,20.149,193.248,19.276z M137.149,61.216l-3.221-6.106l-68.9,36.436
			c-0.576-4.001-1.818-7.834-3.722-11.424c-1.739-3.289-3.973-6.267-6.66-8.84L123.26,34.99l-3.221-6.106l4.939-2.613l17.687,32.027
			L137.149,61.216z"/>
	</g>
</g>
<g>
</g>
<g>
</g>
<g>
</g>
<g>
</g>
<g>
</g>
<g>
</g>
<g>
</g>
<g>
</g>
<g>
</g>
<g>
</g>
<g>
</g>
<g>
</g>
<g>
</g>
<g>
</g>
<g>
</g>
</svg>
