<svg id="color" enable-background="new 0 0 24 24" height="512" viewBox="0 0 24 24" width="512" xmlns="http://www.w3.org/2000/svg"><path d="m5.461 7.832c-.19-.519.079-1.093.598-1.282l8.199-2.98c.521-.19 1.093.079 1.281.598.189.519-.079 1.093-.598 1.282l-8.199 2.98c-.524.19-1.094-.082-1.281-.598z" fill="#607d8b"/><path d="m15.539 4.168-10.078 3.664c.187.515.755.789 1.281.598l8.199-2.98c.519-.189.788-.763.598-1.282z" fill="#546d79"/><path d="m16.599 3.63c-.163 0-.329-.04-.482-.124-.483-.267-.659-.876-.392-1.359l.9-1.63c.176-.319.511-.517.875-.517h4.5c.553 0 1 .448 1 1s-.447 1-1 1h-3.91l-.615 1.113c-.182.33-.524.517-.876.517z" fill="#607d8b"/><path d="m23 1h-5.5l-1.438 2.473c.017.011.035.022.054.032.154.085.32.125.483.125.353 0 .694-.187.876-.517l.615-1.113h3.91c.553 0 1-.448 1-1z" fill="#546d79"/><path d="m22 8h-4.5c-.361 0-.694-.195-.872-.51l-.91-1.62c-.27-.481-.1-1.091.382-1.362.482-.27 1.092-.1 1.362.382l.623 1.11h3.915c.553 0 1 .448 1 1s-.447 1-1 1z" fill="#607d8b"/><path d="m16.174 4.47c-.025.011-.05.024-.074.038-.481.271-.652.88-.382 1.362l.91 1.62c.178.315.511.51.872.51h4.5c.553 0 1-.448 1-1h-5.5z" fill="#546d79"/><path d="m16 6c-1.103 0-2-.897-2-2s.897-2 2-2 2 .897 2 2-.897 2-2 2z" fill="#90a4ae"/><path d="m16 2c-1.103 0-2 .897-2 2s.897 2 2 2z" fill="#7d8f97"/><path d="m8.095 16.925-3.36-7.15c-.234-.5-.02-1.095.48-1.331.5-.235 1.095-.02 1.331.48l3.36 7.15c.234.5.02 1.095-.48 1.33-.499.236-1.096.02-1.331-.479z" fill="#607d8b"/><path d="m5.214 8.445c-.499.235-.714.83-.48 1.33l3.36 7.15c.238.504.835.713 1.331.48z" fill="#546d79"/><path d="m5 10c-1.103 0-2-.897-2-2s.897-2 2-2 2 .897 2 2-.897 2-2 2z" fill="#90a4ae"/><path d="m5 6c-1.103 0-2 .897-2 2s.897 2 2 2z" fill="#7d8f97"/><path d="m12.25 20.5h-6.5c-.414 0-.75-.336-.75-.75v-2c0-.965.785-1.75 1.75-1.75h4.5c.965 0 1.75.785 1.75 1.75v2c0 .414-.336.75-.75.75z" fill="#90a4ae"/><path d="m16.25 24h-14.5c-.414 0-.75-.336-.75-.75v-1.5c0-1.517 1.233-2.75 2.75-2.75h10.5c1.517 0 2.75 1.233 2.75 2.75v1.5c0 .414-.336.75-.75.75z" fill="#607d8b"/><path d="m9 16h-2.25c-.965 0-1.75.785-1.75 1.75v1.25h4z" fill="#7d8f97"/><path d="m9 19h-4-1.25c-1.517 0-2.75 1.233-2.75 2.75v1.5c0 .414.336.75.75.75h7.25z" fill="#546d79"/></svg>